<svg xmlns="http://www.w3.org/2000/svg" xmlns:xlink="http://www.w3.org/1999/xlink" width="1500" zoomAndPan="magnify" viewBox="0 0 1125 1124.99995" height="1500" preserveAspectRatio="xMidYMid meet" version="1.0"><defs><g/></defs><path fill="rgb(0%, 0%, 0%)" d="M 770.277344 341.632812 L 341.632812 341.632812 L 341.632812 783.382812 L 783.382812 783.382812 L 783.382812 341.632812 L 770.277344 341.632812 M 770.277344 770.277344 L 354.886719 770.277344 L 354.886719 354.886719 L 770.277344 354.886719 L 770.277344 770.277344 " fill-opacity="1" fill-rule="nonzero"/><g fill="rgb(0%, 0%, 0%)" fill-opacity="1"><g transform="translate(442.999235, 619.746815)"><g><path d="M 54.769531 -17.917969 C 42.261719 -17.917969 31.441406 -24.171875 30.765625 -37.867188 L 5.070312 -37.867188 C 5.242188 -9.804688 28.398438 2.703125 53.753906 2.703125 C 77.253906 2.703125 101.425781 -7.269531 101.425781 -34.316406 C 101.425781 -78.097656 34.992188 -63.390625 34.992188 -83.84375 C 34.992188 -92.464844 44.964844 -95.847656 52.066406 -95.847656 C 64.742188 -95.847656 71.675781 -91.960938 73.027344 -79.957031 L 97.539062 -79.957031 C 96.691406 -106.160156 75.394531 -116.640625 51.726562 -116.640625 C 30.765625 -116.640625 8.789062 -105.484375 8.789062 -81.816406 C 8.789062 -39.386719 75.222656 -53.753906 75.222656 -31.441406 C 75.222656 -21.128906 62.714844 -17.917969 54.769531 -17.917969 Z M 54.769531 -17.917969 "/></g></g></g><g fill="rgb(0%, 0%, 0%)" fill-opacity="1"><g transform="translate(549.48888, 619.746815)"><g><path d="M 67.617188 -92.972656 C 78.773438 -92.972656 90.269531 -88.410156 95.847656 -76.238281 L 123.738281 -76.238281 C 115.792969 -100.074219 92.972656 -116.640625 67.617188 -116.640625 C 35.160156 -116.640625 8.453125 -89.929688 8.453125 -57.472656 C 8.453125 -25.019531 35.160156 1.691406 67.617188 1.691406 C 100.410156 1.691406 126.613281 -24.847656 126.613281 -57.472656 L 126.613281 -61.363281 L 69.984375 -61.363281 L 69.984375 -42.261719 L 99.226562 -42.261719 C 92.972656 -24.847656 78.773438 -21.300781 67.617188 -21.300781 C 49.359375 -21.300781 34.148438 -37.695312 34.148438 -57.136719 C 34.148438 -76.578125 49.359375 -92.972656 67.617188 -92.972656 Z M 67.617188 -92.972656 "/></g></g></g></svg>